<svg viewBox="0 0 2000 1000" xmlns="http://www.w3.org/2000/svg"><defs><clipPath id="a"><path fill="currentColor" d="M1369 938.5q-100 188.5-247 346t-362.5 128Q544 1383 457 1204.5T282 888q-88-138-30-297.5T453 353q143-78 333-188.5t292.5 81Q1181 437 1325 593.5t44 345Z"/></clipPath></defs><path fill="#fff" d="M0 0h2000v1000H0z"/><g clip-path="url(#a)" transform="translate(846 -552)"><path fill="#8d64ed" d="M1369 938.5q-100 188.5-247 346t-362.5 128Q544 1383 457 1204.5T282 888q-88-138-30-297.5T453 353q143-78 333-188.5t292.5 81Q1181 437 1325 593.5t44 345Z"/></g></svg>